<svg id="Foreground" xmlns="http://www.w3.org/2000/svg" viewBox="0 0 135.419 40" width="135.419" height="40"><defs><style>.cls-1,.cls-2{fill:#0a4372;}.cls-3{fill:#706f6f;}.cls-2{fill-rule:evenodd;}</style></defs><path class="cls-3" d="M34.232 34.11h0.779v5.786h-0.779z"/><path class="cls-3" d="M40.957 35.78c-0.215 -0.703 -0.816 -1.098 -1.557 -1.098 -1.134 0 -1.801 0.881 -1.801 2.336s0.666 2.316 1.801 2.316c0.712 0 1.294 -0.366 1.538 -1.06h0.825c-0.319 1.098 -1.266 1.735 -2.372 1.735 -1.613 0 -2.598 -1.134 -2.598 -2.982s0.994 -3.001 2.626 -3.001c1.116 0 2.063 0.61 2.345 1.773h-0.816Z"/><path class="cls-3" d="M44.877 34.776H42.898v-0.666h4.746v0.666H45.666v5.121h-0.779v-5.121Z"/><path class="cls-3" d="M51.423 34.11h0.779v5.786h-0.779z"/><path class="cls-3" d="M54.125 35.386h0.75v0.61c0.31 -0.479 0.797 -0.723 1.398 -0.723 0.956 0 1.529 0.563 1.529 1.604v3.02h-0.75v-2.87c0 -0.685 -0.31 -1.125 -0.985 -1.125 -0.75 0 -1.191 0.675 -1.191 1.322v2.673h-0.75v-4.521Z"/><path class="cls-3" d="M59.649 35.386h0.75v0.61c0.31 -0.479 0.797 -0.723 1.398 -0.723 0.956 0 1.529 0.563 1.529 1.604v3.02h-0.75v-2.87c0 -0.685 -0.31 -1.125 -0.985 -1.125 -0.75 0 -1.191 0.675 -1.191 1.322v2.673h-0.75v-4.521Z"/><path class="cls-3" d="M64.947 37.646c0 -1.529 0.797 -2.372 2.063 -2.372s2.063 0.901 2.063 2.372 -0.797 2.354 -2.063 2.354 -2.063 -0.881 -2.063 -2.354m3.367 0c0 -1.098 -0.47 -1.726 -1.304 -1.726s-1.304 0.61 -1.304 1.726 0.47 1.708 1.304 1.708 1.304 -0.601 1.304 -1.708"/><path class="cls-3" d="M70.068 35.386h0.807l1.247 3.508 0.113 0.393 0.113 -0.393 1.247 -3.508h0.759l-1.688 4.521h-0.919l-1.688 -4.521Z"/><path class="cls-3" d="M75.592 36.849c0.14 -0.994 0.797 -1.586 1.904 -1.586 1.21 0 1.791 0.703 1.791 1.763v1.782c0 0.515 0.047 0.845 0.16 1.089h-0.788c-0.084 -0.178 -0.113 -0.441 -0.122 -0.712a1.849 1.849 0 0 1 -1.538 0.816c-0.938 0 -1.566 -0.431 -1.566 -1.294 0 -0.619 0.337 -1.069 1.003 -1.294 0.61 -0.206 1.238 -0.253 2.101 -0.262v-0.104c0 -0.732 -0.337 -1.134 -1.116 -1.134 -0.647 0 -0.994 0.357 -1.089 0.938h-0.75Zm1.491 2.504c0.834 0 1.464 -0.657 1.464 -1.426v-0.215c-1.923 0.018 -2.336 0.422 -2.336 0.976 0 0.413 0.348 0.666 0.872 0.666"/><path class="cls-3" d="M81.285 35.976h-0.628v-0.591h0.628v-1.041h0.75v1.041h0.994v0.591h-0.994v2.616c0 0.544 0.16 0.797 0.825 0.797h0.15v0.535c-0.084 0.047 -0.271 0.066 -0.488 0.066 -0.845 0 -1.238 -0.45 -1.238 -1.407v-2.616Z"/><path class="cls-3" d="M84.408 33.773h0.75v1.003h-0.75zm0 1.604h0.75v4.521h-0.75z"/><path class="cls-3" d="M86.782 37.646c0 -1.529 0.797 -2.372 2.063 -2.372s2.063 0.901 2.063 2.372 -0.797 2.354 -2.063 2.354 -2.063 -0.881 -2.063 -2.354m3.367 0c0 -1.098 -0.47 -1.726 -1.304 -1.726s-1.304 0.61 -1.304 1.726 0.47 1.708 1.304 1.708 1.304 -0.601 1.304 -1.708"/><path class="cls-3" d="M92.53 35.386h0.75v0.61c0.31 -0.479 0.797 -0.723 1.398 -0.723 0.956 0 1.529 0.563 1.529 1.604v3.02h-0.75v-2.87c0 -0.685 -0.31 -1.125 -0.985 -1.125 -0.75 0 -1.191 0.675 -1.191 1.322v2.673h-0.75v-4.521Z"/><path class="cls-3" d="M100.493 34.11h0.779v5.786h-0.779z"/><path class="cls-3" d="M103.193 35.386h0.75v0.61c0.31 -0.479 0.797 -0.723 1.398 -0.723 0.956 0 1.529 0.563 1.529 1.604v3.02h-0.75v-2.87c0 -0.685 -0.31 -1.125 -0.985 -1.125 -0.75 0 -1.191 0.675 -1.191 1.322v2.673h-0.75v-4.521Z"/><path class="cls-3" d="M112.216 38.622c0 0.845 -0.75 1.378 -1.81 1.378s-1.819 -0.506 -1.988 -1.575h0.75c0.104 0.628 0.572 0.976 1.266 0.976s1.041 -0.31 1.041 -0.732c0 -1.229 -2.898 -0.215 -2.898 -2.083 0 -0.685 0.535 -1.322 1.641 -1.322 0.976 0 1.697 0.459 1.848 1.586h-0.75c-0.113 -0.703 -0.506 -0.967 -1.144 -0.967 -0.563 0 -0.881 0.282 -0.881 0.657 0 1.256 2.935 0.226 2.935 2.083Z"/><path class="cls-3" d="M113.866 35.976h-0.628v-0.591h0.628v-1.041h0.75v1.041h0.994v0.591h-0.994v2.616c0 0.544 0.16 0.797 0.825 0.797h0.15v0.535c-0.084 0.047 -0.271 0.066 -0.488 0.066 -0.845 0 -1.238 -0.45 -1.238 -1.407v-2.616Z"/><path class="cls-3" d="M116.99 33.773h0.75v1.003h-0.75zm0 1.604h0.75v4.521h-0.75z"/><path class="cls-3" d="M119.69 35.976h-0.628v-0.591h0.628v-1.041h0.75v1.041h0.994v0.591h-0.994v2.616c0 0.544 0.16 0.797 0.825 0.797h0.15v0.535c-0.084 0.047 -0.271 0.066 -0.488 0.066 -0.845 0 -1.238 -0.45 -1.238 -1.407v-2.616Z"/><path class="cls-3" d="M125.693 35.386h0.75v4.521h-0.75v-0.61c-0.31 0.479 -0.779 0.712 -1.369 0.712 -0.947 0 -1.51 -0.553 -1.51 -1.595v-3.02h0.75v2.87c0 0.685 0.3 1.116 0.956 1.116 0.732 0 1.163 -0.666 1.163 -1.313v-2.673Z"/><path class="cls-3" d="M128.395 35.976h-0.628v-0.591h0.628v-1.041h0.75v1.041h0.994v0.591h-0.994v2.616c0 0.544 0.16 0.797 0.825 0.797h0.15v0.535c-0.084 0.047 -0.271 0.066 -0.488 0.066 -0.845 0 -1.238 -0.45 -1.238 -1.407v-2.616Z"/><path class="cls-3" d="M133.384 40c-1.313 0 -2.101 -0.881 -2.101 -2.354s0.788 -2.372 2.054 -2.372 2.045 0.872 2.045 2.316v0.188h-3.339c0.047 1.012 0.515 1.586 1.331 1.586 0.637 0 1.089 -0.31 1.247 -0.929h0.779c-0.244 1.05 -1.003 1.575 -2.035 1.575Zm-1.313 -2.786h2.523c-0.104 -0.834 -0.553 -1.294 -1.256 -1.294s-1.154 0.45 -1.266 1.294"/><path class="cls-2" d="M26.842 0.47c0.047 7.184 -0.825 13.993 -1.078 21.056a74.754 74.754 0 0 1 -6.724 0.807c-0.253 1.36 -0.188 2.842 -0.675 4.108 -0.591 0.188 -1.51 0.553 -2.017 -0.066 0.038 -2.485 0.703 -4.914 0.337 -7.399 1.904 -0.506 4.051 -0.441 5.984 -0.872l0.131 -0.131c-0.215 -5.092 0.61 -9.753 0.807 -14.669 -3.77 -0.122 -7.447 -0.619 -11.301 -0.337a125.902 125.902 0 0 1 -8.675 0.404c-0.872 4.999 -0.535 10.58 -0.807 15.747l0.206 0.206c1.697 0.047 3.452 0.188 5.111 0.131 0.553 0.535 0.084 1.426 0.131 2.157 -0.441 1.866 -0.47 3.92 -1.078 5.721 -0.319 0.215 -0.845 0.15 -1.21 0.066l-0.47 -0.337 0.404 -4.37 -5.384 -0.131c-0.366 -0.066 -0.45 -0.357 -0.535 -0.675C0.721 15.327 0.824 8.463 0.936 1.756 1.058 1.306 0.955 0.78 1.273 0.414L22.134 0.131c1.464 -0.15 3.048 0.018 4.511 -0.131l0.206 0.47Z"/><path class="cls-2" d="M19.911 4.595c0.122 1.378 0.422 3.161 -0.271 4.37 -0.657 -0.066 -1.426 0.169 -1.95 -0.206 -0.215 -1.256 -0.15 -2.729 -0.066 -4.033 0.525 -0.441 1.294 -0.271 1.95 -0.404z"/><path class="cls-2" d="m14.669 5.196 -0.47 3.902c-0.61 0.319 -1.342 0.525 -2.083 0.337 -0.694 -0.61 -0.084 -1.613 -0.271 -2.485 0.3 -0.723 -0.404 -2.035 0.61 -2.289 0.741 0.188 1.801 -0.15 2.223 0.535Z"/><path class="cls-2" d="M9.285 5.675c-0.15 1.378 0.084 3.077 -0.47 4.37 -0.741 -0.084 -1.697 0.215 -2.223 -0.271l0.337 -3.967c0.488 -0.591 1.426 -0.282 2.083 -0.271l0.271 0.131Z"/><path class="cls-2" d="M19.78 11.592c0.169 1.378 0.038 2.804 -0.404 4.033 -0.488 0.384 -1.247 0.084 -1.819 0.271 -0.271 -0.215 -0.337 -0.723 -0.206 -1.078l0.131 -3.367c0.591 -0.384 1.988 -0.657 2.289 0.131Z"/><path class="cls-2" d="M14.199 12.062c-0.122 1.548 -0.553 2.964 -0.675 4.511 -0.45 0.215 -1.041 0.506 -1.548 0.206l-0.206 -0.404c0.188 -1.398 0.188 -2.879 0.271 -4.304 0.253 -0.357 0.637 -0.422 1.012 -0.47 0.319 0.122 0.956 -0.018 1.144 0.47Z"/><path class="cls-2" d="M8.61 12.934a11.541 11.541 0 0 1 -0.404 3.77c-0.553 0.591 -1.464 0.506 -2.223 0.404 -0.066 -1.416 0.366 -2.795 0.404 -4.239 0.61 -0.422 1.398 -0.047 2.083 -0.066l0.131 0.131Z"/><path class="cls-2" d="M13.524 19.864c0.047 2.138 -0.591 4.005 -0.741 6.059 -0.384 0.525 -1.041 0.694 -1.753 0.61 -0.271 -0.384 -0.337 -0.938 -0.197 -1.416 0.525 -1.717 0.047 -3.854 0.675 -5.515 0.591 -0.319 1.67 -0.319 2.017 0.271Z"/><path class="cls-1" d="M46.828 13.655c-0.553 -1.961 -2.063 -2.991 -4.08 -2.991 -3.02 0 -4.774 2.467 -4.774 6.471s1.726 6.414 4.774 6.414c1.904 0 3.423 -0.985 4.033 -2.86h3.761c-0.956 3.761 -4.051 5.833 -7.738 5.833 -5.271 0 -8.479 -3.554 -8.479 -9.378s3.264 -9.435 8.535 -9.435c3.732 0 6.893 2.045 7.709 5.965h-3.732Z"/><path class="cls-1" d="M64.479 13.655c-0.553 -1.961 -2.063 -2.991 -4.08 -2.991 -3.02 0 -4.774 2.467 -4.774 6.471s1.726 6.414 4.774 6.414c1.904 0 3.423 -0.985 4.033 -2.86h3.761c-0.956 3.761 -4.051 5.833 -7.738 5.833 -5.271 0 -8.479 -3.554 -8.479 -9.378s3.264 -9.435 8.535 -9.435c3.732 0 6.893 2.045 7.709 5.965h-3.732Z"/><path class="cls-1" d="m83.357 26.11 -0.291 -2.279c-1.116 1.828 -2.991 2.673 -5.224 2.673 -4.952 0 -8.216 -3.554 -8.216 -9.378s3.266 -9.435 8.536 -9.435c3.732 0 6.893 2.045 7.709 5.965h-3.732c-0.553 -1.932 -2.063 -2.991 -4.08 -2.991 -3.02 0 -4.774 2.438 -4.774 6.471s1.828 6.414 4.905 6.414c2.223 0 4.033 -1.276 4.268 -4.268h-3.892v-2.702h7.288v9.538h-2.494Z"/><path class="cls-1" d="M92.306 16.628h1.866l-3.376 9.763h-1.866z"/><path class="cls-1" d="m97.238 24.797 5.336 -6.574h-5.336v-1.595h7.55v1.595l-5.336 6.574h5.336v1.595h-7.55z"/><path class="cls-1" d="m113.435 26.392 -0.16 -1.238c-0.601 0.994 -1.622 1.453 -2.833 1.453 -2.682 0 -4.455 -1.923 -4.455 -5.083s1.763 -5.111 4.624 -5.111c2.026 0 3.732 1.107 4.173 3.226h-2.026c-0.3 -1.05 -1.116 -1.622 -2.214 -1.622 -1.641 0 -2.589 1.322 -2.589 3.508s0.994 3.47 2.654 3.47c1.21 0 2.185 -0.694 2.307 -2.307H110.807v-1.464h3.949v5.167h-1.351Z"/><path class="cls-1" d="M116.681 16.628h3.545c3.057 0 4.97 1.848 4.97 4.896s-1.913 4.868 -4.97 4.868h-3.545zm6.547 4.896c0 -2.092 -1.116 -3.33 -3.001 -3.33H118.623v6.631h1.604c1.885 0 3.001 -1.22 3.001 -3.301"/><path class="cls-1" d="m130.232 23.485 0.3 1.078 0.291 -1.078 2.523 -6.866h1.941l-3.676 9.763h-2.27l-3.685 -9.763h2.054z"/></svg>